<svg xmlns="http://www.w3.org/2000/svg" xmlns:xlink="http://www.w3.org/1999/xlink" id="Layer_1" x="0px" y="0px" viewBox="0 0 34 34" style="enable-background:new 0 0 34 34;" xml:space="preserve"> <style type="text/css"> .st0{fill-rule:evenodd;clip-rule:evenodd;fill:url(#SVGID_1_);} </style> <linearGradient id="SVGID_1_" gradientUnits="userSpaceOnUse" x1="17" y1="33" x2="17" y2="0.9917"> <stop offset="0" style="stop-color:#41BEED"></stop> <stop offset="1" style="stop-color:#3064B6"></stop> </linearGradient> <path class="st0" d="M31,15.6C31,31.1,16.3,33,16.3,33l-0.1-4C8.9,28.6,3,22.5,3,15C3,7.3,9.3,1,17,1s14,6.3,14,14 C31,15.2,31,15.4,31,15.6C31,15.6,31,15.6,31,15.6z M11,13c-1.1,0-2,0.9-2,2s0.9,2,2,2s2-0.9,2-2S12.1,13,11,13z M17,13 c-1.1,0-2,0.9-2,2s0.9,2,2,2s2-0.9,2-2S18.1,13,17,13z M23,13c-1.1,0-2,0.9-2,2s0.9,2,2,2c1.1,0,2-0.9,2-2S24.1,13,23,13z"></path> </svg>