<svg xmlns="http://www.w3.org/2000/svg" xmlns:xlink="http://www.w3.org/1999/xlink" id="Layer_1" x="0px" y="0px" viewBox="0 0 77 37" style="enable-background:new 0 0 77 37;" xml:space="preserve"> <style type="text/css"> .crossp0{fill-rule:evenodd;clip-rule:evenodd;fill:url(#CROSSP_1_);} .crossp1{fill-rule:evenodd;clip-rule:evenodd;fill:url(#CROSSP_2_);} .crossp2{fill-rule:evenodd;clip-rule:evenodd;fill:url(#CROSSP_3_);} .crossp3{fill-rule:evenodd;clip-rule:evenodd;fill:#222;} .crossp4{fill-rule:evenodd;clip-rule:evenodd;fill:#222;} .crossp5{fill-rule:evenodd;clip-rule:evenodd;fill:url(#CROSSP_4_);} </style> <linearGradient id="CROSSP_1_" gradientUnits="userSpaceOnUse" x1="26" y1="-7.994458e-10" x2="26" y2="36.0004"> <stop offset="0" style="stop-color:#2865B7"></stop> <stop offset="1" style="stop-color:#34B4E6"></stop> </linearGradient> <path class="crossp0" d="M43.8,36H8.2C5.3,36,3,33.7,3,30.8V5.2C3,2.3,5.3,0,8.2,0h35.6C46.7,0,49,2.3,49,5.2v25.6 C49,33.7,46.7,36,43.8,36z M46,5c0-1.1-0.9-2-2-2H8C6.9,3,6,3.9,6,5v26c0,1.1,0.9,2,2,2h36c1.1,0,2-0.9,2-2V5z"></path> <linearGradient id="CROSSP_2_" gradientUnits="userSpaceOnUse" x1="26" y1="31.0003" x2="26" y2="37.0001"> <stop offset="0" style="stop-color:#2865B7"></stop> <stop offset="1" style="stop-color:#34B4E6"></stop> </linearGradient> <path class="crossp1" d="M49,37H3c-1.7,0-3-1.3-3-3v0c0-1.7,1.3-3,3-3h14.1c0.4,0,0.8,0.2,1,0.6c0.3,0.8,1,1.4,1.9,1.4h13 c0.9,0,1.6-0.6,1.9-1.4c0.1-0.4,0.5-0.6,1-0.6H49c1.7,0,3,1.3,3,3v0C52,35.7,50.7,37,49,37z"></path> <linearGradient id="CROSSP_3_" gradientUnits="userSpaceOnUse" x1="55" y1="5.9998" x2="55" y2="37"> <stop offset="0" style="stop-color:#2865B7"></stop> <stop offset="1" style="stop-color:#34B4E6"></stop> </linearGradient> <path class="crossp2" d="M64,37H46c-1.7,0-3-1.3-3-3V9c0-1.7,1.3-3,3-3h18c1.7,0,3,1.3,3,3v25C67,35.7,65.7,37,64,37z"></path> <path class="crossp3" d="M55,32c1.1,0,2,0.9,2,2c0,1.1-0.9,2-2,2c-1.1,0-2-0.9-2-2C53,32.9,53.9,32,55,32z"></path> <path class="crossp4" d="M64,10c0-0.6-0.4-1-1-1H47c-0.6,0-1,0.4-1,1v20c0,0.6,0.4,1,1,1h16c0.6,0,1-0.4,1-1V10z"></path> <linearGradient id="CROSSP_4_" gradientUnits="userSpaceOnUse" x1="69" y1="14.0002" x2="69" y2="37"> <stop offset="0" style="stop-color:#2865B7"></stop> <stop offset="1" style="stop-color:#34B4E6"></stop> </linearGradient> <path class="crossp5" d="M74,37H64c-1.7,0-3-1.3-3-3V17c0-1.7,1.3-3,3-3h10c1.7,0,3,1.3,3,3v17C77,35.7,75.7,37,74,37z"></path> <path class="crossp4" d="M74,18c0-0.6-0.4-1-1-1h-8c-0.6,0-1,0.4-1,1v14c0,0.6,0.4,1,1,1h8c0.6,0,1-0.4,1-1V18z"></path> <path class="crossp4" d="M69,34c0.6,0,1,0.4,1,1s-0.4,1-1,1c-0.6,0-1-0.4-1-1S68.4,34,69,34z"></path> </svg>